<svg width="29" height="29" viewBox="0 0 29 29" fill="none" xmlns="http://www.w3.org/2000/svg">
<path d="M14.0062 7.81245C10.0312 7.81245 6.825 11.0187 6.825 14.9937C6.825 18.9687 10.0312 22.1749 14.0062 22.1749C17.9812 22.1749 21.1875 18.9687 21.1875 14.9937C21.1875 11.0187 17.9812 7.81245 14.0062 7.81245ZM14.0062 19.6625C11.4375 19.6625 9.3375 17.5687 9.3375 14.9937C9.3375 12.4187 11.4312 10.325 14.0062 10.325C16.5812 10.325 18.675 12.4187 18.675 14.9937C18.675 17.5687 16.575 19.6625 14.0062 19.6625ZM23.1562 7.5187C23.1562 8.44995 22.4062 9.1937 21.4813 9.1937C20.55 9.1937 19.8062 8.4437 19.8062 7.5187C19.8062 6.5937 20.5563 5.8437 21.4813 5.8437C22.4062 5.8437 23.1562 6.5937 23.1562 7.5187ZM27.9125 9.2187C27.8062 6.97495 27.2937 4.98745 25.65 3.34995C24.0125 1.71245 22.025 1.19995 19.7812 1.08745C17.4688 0.956201 10.5375 0.956201 8.225 1.08745C5.9875 1.1937 4 1.7062 2.35625 3.3437C0.712499 4.9812 0.206249 6.9687 0.0937492 9.21245C-0.0375008 11.525 -0.0375008 18.4562 0.0937492 20.7687C0.199999 23.0124 0.712499 25 2.35625 26.6375C4 28.275 5.98125 28.7875 8.225 28.9C10.5375 29.0312 17.4688 29.0312 19.7812 28.9C22.025 28.7937 24.0125 28.2812 25.65 26.6375C27.2875 25 27.8 23.0124 27.9125 20.7687C28.0438 18.4562 28.0438 11.5312 27.9125 9.2187ZM24.925 23.25C24.4375 24.475 23.4938 25.4187 22.2625 25.9125C20.4188 26.6437 16.0437 26.475 14.0062 26.475C11.9688 26.475 7.5875 26.6375 5.75 25.9125C4.525 25.425 3.58125 24.4812 3.0875 23.25C2.35625 21.4062 2.525 17.0312 2.525 14.9937C2.525 12.9562 2.3625 8.57495 3.0875 6.73745C3.575 5.51245 4.51875 4.5687 5.75 4.07495C7.59375 3.3437 11.9688 3.51245 14.0062 3.51245C16.0437 3.51245 20.425 3.34995 22.2625 4.07495C23.4875 4.56245 24.4312 5.5062 24.925 6.73745C25.6562 8.5812 25.4875 12.9562 25.4875 14.9937C25.4875 17.0312 25.6562 21.4125 24.925 23.25Z" fill="#2C3D4D"/>
</svg>
