<svg width="188" height="60" viewBox="0 0 188 60" fill="none" xmlns="http://www.w3.org/2000/svg">
<path d="M43.9368 24.995C43.9068 23.225 43.7268 21.755 43.3968 20.585C43.0668 19.415 42.4818 18.545 41.6418 17.975C40.8318 17.375 39.6468 17.09 38.0868 17.12H34.2618L34.2168 41.645C34.2168 42.455 34.2018 43.16 34.1718 43.76C34.1718 44.33 34.1418 44.81 34.0818 45.2C34.7118 45.17 35.3268 45.14 35.9268 45.11C36.5568 45.08 37.1868 45.05 37.8168 45.02V47H27.2418V45.515C28.3818 45.455 29.1468 45.185 29.5368 44.705C29.9568 44.225 30.1818 43.58 30.2118 42.77C30.2718 41.93 30.3018 41 30.3018 39.98L30.3468 17.165L25.7118 17.21C23.8218 17.21 22.4868 17.84 21.7068 19.1C20.9268 20.36 20.5368 22.325 20.5368 24.995H18.8718L19.1418 15.5H45.3768L45.6468 24.995H43.9368ZM63.591 45.65C64.521 45.65 65.166 45.425 65.526 44.975C65.886 44.495 66.096 43.85 66.156 43.04C66.216 42.2 66.246 41.24 66.246 40.16V33.86C66.246 31.28 65.826 29.345 64.986 28.055C64.176 26.765 62.886 26.135 61.116 26.165C60.006 26.195 58.911 26.465 57.831 26.975C56.781 27.485 55.926 28.145 55.266 28.955V42.23C55.266 42.83 55.251 43.37 55.221 43.85C55.191 44.3 55.131 44.78 55.041 45.29C55.521 45.26 55.986 45.245 56.436 45.245C56.916 45.215 57.396 45.185 57.876 45.155V47H48.696V45.65C49.626 45.65 50.271 45.425 50.631 44.975C50.991 44.495 51.201 43.85 51.261 43.04C51.351 42.2 51.396 41.24 51.396 40.16V18.875C51.396 18.395 51.396 17.945 51.396 17.525C51.426 17.075 51.471 16.55 51.531 15.95C50.991 15.98 50.451 16.01 49.911 16.04C49.401 16.07 48.876 16.1 48.336 16.13V14.24C49.656 14.24 50.676 14.18 51.396 14.06C52.146 13.94 52.701 13.79 53.061 13.61C53.451 13.43 53.751 13.235 53.961 13.025H55.266V26.75C55.926 26.18 56.661 25.685 57.471 25.265C58.311 24.815 59.166 24.455 60.036 24.185C60.936 23.915 61.806 23.78 62.646 23.78C65.256 23.78 67.131 24.605 68.271 26.255C69.441 27.875 70.041 30.41 70.071 33.86L70.116 42.23C70.116 42.83 70.101 43.37 70.071 43.85C70.071 44.3 70.026 44.78 69.936 45.29C70.416 45.26 70.881 45.245 71.331 45.245C71.811 45.215 72.291 45.185 72.771 45.155V47H63.591V45.65ZM76.5845 45.65C77.5145 45.65 78.1595 45.425 78.5195 44.975C78.8795 44.495 79.0895 43.85 79.1495 43.04C79.2095 42.2 79.2395 41.24 79.2395 40.16V29.9C79.2395 29.42 79.2395 28.94 79.2395 28.46C79.2695 27.98 79.3295 27.485 79.4195 26.975C78.8795 27.005 78.3395 27.035 77.7995 27.065C77.2895 27.065 76.7645 27.08 76.2245 27.11V25.265H77.6195C78.9095 25.265 79.7945 25.145 80.2745 24.905C80.7845 24.635 81.2045 24.35 81.5345 24.05H82.8395C82.8995 24.53 82.9445 25.13 82.9745 25.85C83.0045 26.54 83.0345 27.425 83.0645 28.505C83.5145 27.755 84.1295 27.02 84.9095 26.3C85.6895 25.58 86.5595 24.98 87.5195 24.5C88.5095 24.02 89.5445 23.78 90.6245 23.78C91.4645 23.78 92.1995 24.005 92.8295 24.455C93.4595 24.905 93.7745 25.625 93.7745 26.615C93.7745 26.855 93.6995 27.155 93.5495 27.515C93.3995 27.845 93.1595 28.145 92.8295 28.415C92.4995 28.655 92.0645 28.775 91.5245 28.775C90.8645 28.745 90.3395 28.49 89.9495 28.01C89.5595 27.5 89.4095 26.915 89.4995 26.255C88.7495 26.225 87.9695 26.42 87.1595 26.84C86.3795 27.26 85.6445 27.845 84.9545 28.595C84.2645 29.315 83.6495 30.17 83.1095 31.16L83.1545 42.23C83.1545 42.83 83.1395 43.37 83.1095 43.85C83.1095 44.3 83.0645 44.78 82.9745 45.29C83.4545 45.26 83.9195 45.245 84.3695 45.245C84.8495 45.215 85.3295 45.185 85.8095 45.155V47H76.5845V45.65ZM96.5523 45.65C97.4823 45.65 98.1273 45.425 98.4873 44.975C98.8473 44.495 99.0573 43.85 99.1173 43.04C99.1773 42.2 99.2073 41.24 99.2073 40.16V29.9C99.2073 29.42 99.2223 28.97 99.2523 28.55C99.2823 28.1 99.3273 27.575 99.3873 26.975C98.8473 27.005 98.3073 27.035 97.7673 27.065C97.2573 27.095 96.7323 27.125 96.1923 27.155V25.265C97.5123 25.265 98.5323 25.205 99.2523 25.085C99.9723 24.965 100.512 24.815 100.872 24.635C101.262 24.455 101.562 24.26 101.772 24.05H103.077V42.23C103.077 42.83 103.062 43.37 103.032 43.85C103.032 44.3 102.987 44.78 102.897 45.29C103.377 45.26 103.842 45.245 104.292 45.245C104.772 45.215 105.252 45.185 105.732 45.155V47H96.5523V45.65ZM100.917 19.595C100.287 19.595 99.7323 19.34 99.2523 18.83C98.7723 18.32 98.5323 17.69 98.5323 16.94C98.5323 16.19 98.7723 15.56 99.2523 15.05C99.7623 14.51 100.332 14.24 100.962 14.24C101.652 14.24 102.222 14.51 102.672 15.05C103.152 15.56 103.392 16.19 103.392 16.94C103.392 17.69 103.137 18.32 102.627 18.83C102.147 19.34 101.577 19.595 100.917 19.595ZM118.259 47.135L111.824 32.465C111.344 31.325 110.969 30.35 110.699 29.54C110.429 28.73 110.234 28.055 110.114 27.515C110.024 26.975 109.964 26.54 109.934 26.21L107.999 26.345V24.5H116.279V25.85C115.379 25.85 114.794 26.09 114.524 26.57C114.284 27.02 114.254 27.635 114.434 28.415C114.614 29.165 114.884 29.975 115.244 30.845L118.709 38.765C118.949 39.275 119.174 39.815 119.384 40.385C119.624 40.925 119.849 41.495 120.059 42.095H120.104C120.254 41.645 120.419 41.165 120.599 40.655C120.809 40.145 120.989 39.65 121.139 39.17L124.739 29.315C124.979 28.595 125.234 27.965 125.504 27.425C125.774 26.885 125.969 26.48 126.089 26.21L123.209 26.345V24.5H130.319V25.85C129.659 25.85 129.104 26.075 128.654 26.525C128.204 26.975 127.769 27.65 127.349 28.55C126.959 29.45 126.494 30.575 125.954 31.925L120.059 47.135H118.259ZM143.599 47.72C141.529 47.72 139.654 47.24 137.974 46.28C136.324 45.29 135.019 43.91 134.059 42.14C133.099 40.34 132.619 38.225 132.619 35.795C132.619 33.695 133.084 31.73 134.014 29.9C134.974 28.07 136.309 26.6 138.019 25.49C139.729 24.35 141.709 23.78 143.959 23.78C145.219 23.78 146.389 23.99 147.469 24.41C148.579 24.8 149.554 25.415 150.394 26.255C151.234 27.065 151.894 28.1 152.374 29.36C152.854 30.59 153.094 32.045 153.094 33.725L137.254 33.995C137.254 36.275 137.494 38.285 137.974 40.025C138.484 41.735 139.294 43.07 140.404 44.03C141.514 44.96 142.939 45.425 144.679 45.425C145.609 45.425 146.554 45.26 147.514 44.93C148.504 44.6 149.419 44.15 150.259 43.58C151.099 43.01 151.774 42.38 152.284 41.69L153.364 42.59C152.554 43.85 151.579 44.855 150.439 45.605C149.299 46.355 148.129 46.895 146.929 47.225C145.729 47.555 144.619 47.72 143.599 47.72ZM137.389 32.105H148.864C148.864 31.025 148.699 29.99 148.369 29C148.069 27.98 147.559 27.155 146.839 26.525C146.119 25.865 145.174 25.535 144.004 25.535C142.264 25.535 140.809 26.06 139.639 27.11C138.499 28.13 137.749 29.795 137.389 32.105Z" fill="#2C3D4D"/>
<circle cx="166.5" cy="32.5" r="6.5" fill="#676F65"/>
<circle cx="162" cy="43" r="5" fill="#2C3D4D"/>
</svg>
