<svg width="32" height="32" viewBox="0 0 32 32" fill="none" xmlns="http://www.w3.org/2000/svg">
<path d="M31.5 16C31.5 24.5625 24.5625 31.5 16 31.5C14.4 31.5 12.8625 31.2563 11.4125 30.8062C12.0438 29.775 12.9875 28.0875 13.3375 26.7437C13.525 26.0187 14.3 23.0562 14.3 23.0562C14.8063 24.0187 16.2812 24.8375 17.85 24.8375C22.525 24.8375 25.8937 20.5375 25.8937 15.1938C25.8937 10.075 21.7125 6.24375 16.3375 6.24375C9.65 6.24375 6.09375 10.7312 6.09375 15.625C6.09375 17.9 7.30625 20.7313 9.2375 21.6313C9.53125 21.7688 9.6875 21.7062 9.75625 21.425C9.80625 21.2125 10.0688 20.1562 10.1875 19.6688C10.225 19.5125 10.2063 19.375 10.0813 19.225C9.45 18.4438 8.9375 17.0187 8.9375 15.6875C8.9375 12.2688 11.525 8.9625 15.9375 8.9625C19.7437 8.9625 22.4125 11.5562 22.4125 15.2688C22.4125 19.4625 20.2938 22.3687 17.5375 22.3687C16.0188 22.3687 14.875 21.1125 15.2437 19.5688C15.6812 17.725 16.525 15.7375 16.525 14.4062C16.525 13.2188 15.8875 12.225 14.5625 12.225C13.0063 12.225 11.7563 13.8313 11.7563 15.9875C11.7563 17.3625 12.2188 18.2875 12.2188 18.2875C12.2188 18.2875 10.6875 24.775 10.4062 25.9875C10.0938 27.325 10.2188 29.2125 10.35 30.4375C4.5875 28.1812 0.5 22.5688 0.5 16C0.5 7.4375 7.4375 0.5 16 0.5C24.5625 0.5 31.5 7.4375 31.5 16Z" fill="#2C3D4D"/>
</svg>
